<svg xmlns="http://www.w3.org/2000/svg" viewBox="0 0 24 24" fill="none">
  <rect x="1" y="1" width="22" height="22" rx="3" fill="#1a1a2e"/>
  <rect x="3" y="3" width="18" height="18" rx="2" stroke="#2dd4bf" stroke-width="1" fill="none"/>
  <circle cx="8" cy="8" r="2" fill="#f7c948" opacity="0.9"/>
  <path d="M3 17 L9 11 L13 15 L17 9 L21 13 L21 19 C21 20.1 20.1 21 19 21 L5 21 C3.9 21 3 20.1 3 19 Z" fill="#2dd4bf" opacity="0.6"/>
  <path d="M13 15 L17 9 L21 13 L21 19 C21 20.1 20.1 21 19 21 L11 21 Z" fill="#2dd4bf" opacity="0.8"/>
  <path d="M10 4 L11 6.5 L13.5 5.5 L12 7.5 L14 9 L11.5 9 L11 11.5 L10 9.5 L7.5 10 L9 8 L7 6.5 L9.5 6.5 Z" fill="#f7c948" opacity="0.7" transform="translate(5,-1) scale(0.5)"/>
</svg>
