<svg xmlns="http://www.w3.org/2000/svg" viewBox="0 0 100 100" width="100" height="100">
  <path d="M6.017 4.313l55.333-4.087c6.797-.583 8.543-.19 12.817 2.917l17.663 12.443c2.913 2.14 3.883 2.723 3.883 5.053v68.243c0 4.277-1.553 6.807-6.99 7.193L24.467 99.967c-4.08.193-6.023-.39-8.16-3.113L3.3 79.94c-2.333-3.113-3.3-5.443-3.3-8.167V11.113c0-3.497 1.553-6.413 6.017-6.8z" fill="#fff"/>
  <path d="M61.35.227l-55.333 4.087C1.553 4.7 0 7.617 0 11.113v60.66c0 2.723.967 5.053 3.3 8.167l13.007 16.913c2.137 2.723 4.08 3.307 8.16 3.113l64.257-3.89c5.433-.387 6.99-2.917 6.99-7.193V20.64c0-2.21-.82-2.837-3.3-4.553L75.167 3.527C70.247.62 68.147-.357 61.35.227zM25.33 19.077c-5.77.39-7.08.477-10.36-2.143l-7.2-5.637c-.97-.78-.58-1.75 1.17-1.943l51.92-3.89c4.46-.387 6.79 1.17 8.54 2.527l8.35 6.03c.39.197.97 1.36 0 1.36l-54.08 3.307-.33.39zm-5.24 72.073V27.467c0-2.527.777-3.697 3.113-3.89l58.43-3.5c2.14-.193 3.113 1.167 3.113 3.693v63.2c0 2.53-.39 4.67-3.883 4.863l-55.923 3.307c-3.5.193-4.85-1.167-4.85-3.873zm54.76-59.507c.39 1.747 0 3.5-1.747 3.697l-2.72.58v46.717c-2.33 1.36-4.467 2.14-6.22 2.14-2.917 0-3.69-.97-5.83-3.5L37.6 49.003v29.95l5.637 1.167s0 3.5-4.85 3.5l-13.393.777c-.39-.78 0-2.723 1.357-3.11l3.497-.97V39.867L25.5 39.48c-.39-1.75.58-4.277 3.3-4.473l14.367-.97 22.273 34.093V40.647l-4.66-.583c-.39-2.143 1.163-3.697 3.103-3.89l14.173-.78z" fill="#000"/>
</svg>
